Preview_RobotoExtremo-wght_500.00_wdth_125.00_opsz_144.00_GRAD_0.00_XTRA_468.00_XOPQ_96.00_YOPQ_79.00.ufo
<glyph name="parenleft" format="2">
  <advance width="858"/>
  <unicode hex="0028"/>
  <outline>
    <contour>
      <point x="790.4" y="-436.0" type="line"/>
      <point x="519.2" y="-362.8"/>
      <point x="143.0" y="113.60000000000001"/>
      <point x="143.0" y="514.8000000000001" type="qcurve" smooth="yes"/>
      <point x="143.0" y="525.0" type="line" smooth="yes"/>
      <point x="143.0" y="926.2"/>
      <point x="519.2" y="1402.8"/>
      <point x="790.4" y="1476.0" type="qcurve"/>
      <point x="790.4" y="1341.0" type="line"/>
      <point x="621.4" y="1276.0"/>
      <point x="366.6" y="898.0"/>
      <point x="366.6" y="532.0" type="qcurve" smooth="yes"/>
      <point x="366.6" y="508.0" type="line" smooth="yes"/>
      <point x="366.6" y="142.0"/>
      <point x="621.4" y="-235.99999999999997"/>
      <point x="790.4" y="-301.0" type="qcurve"/>
    </contour>
  </outline>
</glyph>
<glyph name="slash" format="2">
  <advance width="919"/>
  <unicode hex="002F"/>
  <outline>
    <contour>
      <point x="-97.0" y="-125.0" type="line"/>
      <point x="757.0" y="1456.0" type="line"/>
      <point x="952.0" y="1456.0" type="line"/>
      <point x="97.0" y="-125.0" type="line"/>
    </contour>
  </outline>
</glyph>
<glyph name="zero" format="2">
  <advance width="1551"/>
  <unicode hex="0030"/>
  <outline>
    <contour>
      <point x="77.4" y="732.9999999999999" type="qcurve" smooth="yes"/>
      <point x="77.4" y="751.8000000000001" type="line" smooth="yes"/>
      <point x="77.4" y="1107.6"/>
      <point x="443.0" y="1480.0"/>
      <point x="774.8" y="1480.0" type="qcurve" smooth="yes"/>
      <point x="1113.0" y="1480.0"/>
      <point x="1473.2" y="1113.6000000000001"/>
      <point x="1473.2" y="752.0000000000001" type="qcurve" smooth="yes"/>
      <point x="1473.2" y="730.9999999999999" type="line" smooth="yes"/>
      <point x="1473.2" y="354.4"/>
      <point x="1107.6" y="-24.0"/>
      <point x="774.8" y="-24.0" type="qcurve" smooth="yes"/>
      <point x="435.79999999999995" y="-24.000000000000004"/>
      <point x="77.4" y="367.0"/>
    </contour>
    <contour>
      <point x="287.2" y="723.0" type="line" smooth="yes"/>
      <point x="287.2" y="428.2"/>
      <point x="529.6" y="131.6"/>
      <point x="774.8000000000001" y="131.6" type="qcurve" smooth="yes"/>
      <point x="1019.8000000000001" y="131.6"/>
      <point x="1263.3999999999999" y="428.2"/>
      <point x="1263.3999999999999" y="721.0" type="qcurve" smooth="yes"/>
      <point x="1263.3999999999999" y="762.0" type="line" smooth="yes"/>
      <point x="1263.3999999999999" y="1040.6"/>
      <point x="1015.8" y="1319.6"/>
      <point x="774.8000000000001" y="1319.6" type="qcurve" smooth="yes"/>
      <point x="533.6" y="1319.6"/>
      <point x="287.2" y="1040.8"/>
      <point x="287.2" y="762.2" type="qcurve" smooth="yes"/>
    </contour>
  </outline>
</glyph>
<glyph name="one" format="2">
  <advance width="1551"/>
  <unicode hex="0031"/>
  <outline>
    <contour>
      <point x="791.4" y="0.0" type="line"/>
      <point x="791.4" y="1265.6" type="line"/>
      <point x="280.4" y="1051.6" type="line"/>
      <point x="280.4" y="1245.6" type="line"/>
      <point x="850.4" y="1461.6" type="line"/>
      <point x="998.4" y="1461.6" type="line"/>
      <point x="998.4" y="0.0" type="line"/>
    </contour>
  </outline>
</glyph>
<glyph name="two" format="2">
  <advance width="1551"/>
  <unicode hex="0032"/>
  <outline>
    <contour>
      <point x="178.8" y="0.0" type="line"/>
      <point x="178.8" y="122.0" type="line"/>
      <point x="859.6" y="687.4" type="line" smooth="yes"/>
      <point x="963.8000000000001" y="778.2"/>
      <point x="1111.4" y="968.2"/>
      <point x="1110.6000000000001" y="1069.2" type="qcurve" smooth="yes"/>
      <point x="1109.8000000000002" y="1200.6"/>
      <point x="949.1999999999999" y="1321.6"/>
      <point x="770.4" y="1321.6" type="qcurve" smooth="yes"/>
      <point x="588.4" y="1321.6"/>
      <point x="388.6" y="1193.2"/>
      <point x="388.6" y="1045.2" type="qcurve" smooth="yes"/>
      <point x="388.6" y="1018.2" type="line"/>
      <point x="183.2" y="1018.2" type="line"/>
      <point x="183.2" y="1045.3999999999999" type="line" smooth="yes"/>
      <point x="183.2" y="1249.9999999999998"/>
      <point x="500.8" y="1480.0"/>
      <point x="772.1999999999999" y="1480.0" type="qcurve" smooth="yes"/>
      <point x="1044.2" y="1480.0"/>
      <point x="1322.0" y="1256.6"/>
      <point x="1322.4" y="1090.7999999999997" type="qcurve" smooth="yes"/>
      <point x="1322.8" y="927.5999999999999"/>
      <point x="1141.6" y="699.0"/>
      <point x="996.0" y="576.2" type="qcurve" smooth="yes"/>
      <point x="501.4" y="152.6" type="line"/>
      <point x="1373.4" y="152.6" type="line"/>
      <point x="1373.4" y="0.0" type="line"/>
    </contour>
  </outline>
</glyph>
<glyph name="three" format="2">
  <advance width="1551"/>
  <unicode hex="0033"/>
  <outline>
    <contour>
      <point x="142.6" y="391.8" type="qcurve" smooth="yes"/>
      <point x="142.6" y="430.2" type="line"/>
      <point x="344.0" y="430.2" type="line"/>
      <point x="344.0" y="395.79999999999995" type="line" smooth="yes"/>
      <point x="343.99999999999994" y="263.59999999999997"/>
      <point x="566.0" y="128.6"/>
      <point x="754.2" y="128.6" type="qcurve" smooth="yes"/>
      <point x="934.8000000000001" y="128.6"/>
      <point x="1159.2" y="264.4"/>
      <point x="1159.2" y="410.0" type="qcurve" smooth="yes"/>
      <point x="1159.2" y="556.6"/>
      <point x="910.8000000000001" y="691.6"/>
      <point x="702.6000000000001" y="691.6" type="qcurve" smooth="yes"/>
      <point x="522.2" y="691.6" type="line"/>
      <point x="522.2" y="820.0" type="line"/>
      <point x="693.6" y="820.0" type="line" smooth="yes"/>
      <point x="850.0" y="820.0"/>
      <point x="1101.8" y="940.2"/>
      <point x="1101.8" y="1087.0" type="qcurve" smooth="yes"/>
      <point x="1101.8" y="1205.4"/>
      <point x="917.2" y="1327.0"/>
      <point x="754.2" y="1327.0" type="qcurve" smooth="yes"/>
      <point x="580.8000000000001" y="1327.0"/>
      <point x="390.79999999999995" y="1203.3999999999999"/>
      <point x="390.79999999999995" y="1079.3999999999999" type="qcurve" smooth="yes"/>
      <point x="390.79999999999995" y="1050.9999999999998" type="line"/>
      <point x="191.2" y="1050.9999999999998" type="line"/>
      <point x="191.2" y="1083.4" type="line" smooth="yes"/>
      <point x="191.2" y="1274.6"/>
      <point x="487.4" y="1480.0"/>
      <point x="756.0" y="1480.0" type="qcurve" smooth="yes"/>
      <point x="1020.0" y="1480.0"/>
      <point x="1308.6" y="1283.4"/>
      <point x="1308.6" y="1106.0" type="qcurve" smooth="yes"/>
      <point x="1308.6" y="967.1999999999999"/>
      <point x="1140.1999999999998" y="802.6"/>
      <point x="998.5999999999999" y="771.8" type="qcurve"/>
      <point x="998.5999999999999" y="767.8" type="line"/>
      <point x="1159.1999999999998" y="742.4"/>
      <point x="1373.6" y="566.0"/>
      <point x="1373.6" y="405.8" type="qcurve" smooth="yes"/>
      <point x="1373.6" y="210.6"/>
      <point x="1044.8" y="-24.0"/>
      <point x="758.4" y="-24.0" type="qcurve" smooth="yes"/>
      <point x="460.59999999999997" y="-24.0"/>
      <point x="142.6" y="199.8"/>
    </contour>
  </outline>
</glyph>
<glyph name="four" format="2">
  <advance width="1551"/>
  <unicode hex="0034"/>
  <outline>
    <contour>
      <point x="991.8" y="0.0" type="line"/>
      <point x="991.8" y="381.0" type="line"/>
      <point x="1000.4" y="395.0" type="line"/>
      <point x="1000.4" y="1217.8" type="line"/>
      <point x="992.2" y="1217.8" type="line"/>
      <point x="340.20000000000005" y="483.0" type="line"/>
      <point x="1067.4" y="483.0" type="line"/>
      <point x="1093.0" y="489.0" type="line"/>
      <point x="1429.1999999999998" y="489.0" type="line"/>
      <point x="1429.1999999999998" y="321.4" type="line"/>
      <point x="117.0" y="321.4" type="line"/>
      <point x="117.0" y="482.0" type="line"/>
      <point x="1018.5999999999999" y="1456.0" type="line"/>
      <point x="1187.2" y="1456.0" type="line"/>
      <point x="1187.2" y="0.0" type="line"/>
    </contour>
  </outline>
</glyph>
<glyph name="five" format="2">
  <advance width="1551"/>
  <unicode hex="0035"/>
  <outline>
    <contour>
      <point x="175.4" y="389.79999999999995" type="qcurve" smooth="yes"/>
      <point x="175.4" y="420.2" type="line"/>
      <point x="378.8" y="420.20000000000005" type="line"/>
      <point x="378.8" y="393.8" type="line" smooth="yes"/>
      <point x="378.8" y="262.4"/>
      <point x="615.2" y="130.6"/>
      <point x="806.4" y="130.6" type="qcurve" smooth="yes"/>
      <point x="999.4" y="130.6"/>
      <point x="1206.4" y="313.59999999999997"/>
      <point x="1206.4" y="483.8" type="qcurve" smooth="yes"/>
      <point x="1206.4" y="662.8000000000001"/>
      <point x="990.2" y="822.8"/>
      <point x="822.0" y="822.8" type="qcurve" smooth="yes"/>
      <point x="660.4" y="822.8"/>
      <point x="464.8" y="710.8"/>
      <point x="418.8" y="654.6" type="qcurve"/>
      <point x="237.79999999999998" y="707.6" type="line"/>
      <point x="338.40000000000003" y="1456.0" type="line"/>
      <point x="1323.6" y="1456.0" type="line"/>
      <point x="1323.6" y="1301.7999999999997" type="line"/>
      <point x="487.0" y="1301.8" type="line"/>
      <point x="423.2" y="837.6" type="line"/>
      <point x="470.99999999999994" y="878.8"/>
      <point x="699.0" y="963.6"/>
      <point x="864.9999999999999" y="963.6" type="qcurve" smooth="yes"/>
      <point x="1102.8" y="963.6"/>
      <point x="1415.6" y="723.8"/>
      <point x="1414.8" y="490.00000000000006" type="qcurve" smooth="yes"/>
      <point x="1414.0" y="251.8"/>
      <point x="1095.3999999999999" y="-22.4"/>
      <point x="806.0" y="-22.4" type="qcurve" smooth="yes"/>
      <point x="500.6" y="-22.4"/>
      <point x="174.79999999999998" y="204.20000000000002"/>
    </contour>
  </outline>
</glyph>
<glyph name="six" format="2">
  <advance width="1551"/>
  <unicode hex="0036"/>
  <outline>
    <contour>
      <point x="156.8" y="614.0" type="qcurve" smooth="yes"/>
      <point x="156.8" y="644.0" type="line" smooth="yes"/>
      <point x="156.8" y="1033.0"/>
      <point x="713.8000000000001" y="1476.0"/>
      <point x="1178.3999999999999" y="1476.0" type="qcurve" smooth="yes"/>
      <point x="1223.4" y="1476.0" type="line"/>
      <point x="1223.4" y="1315.1999999999998" type="line"/>
      <point x="1182.4" y="1315.1999999999998" type="line" smooth="yes"/>
      <point x="814.4" y="1315.1999999999998"/>
      <point x="364.2" y="977.6"/>
      <point x="364.2" y="616.8" type="qcurve" smooth="yes"/>
      <point x="364.2" y="596.8000000000001" type="line" smooth="yes"/>
      <point x="364.2" y="344.4"/>
      <point x="614.1999999999999" y="129.6"/>
      <point x="804.2" y="129.6" type="qcurve" smooth="yes"/>
      <point x="996.6" y="129.6"/>
      <point x="1225.2" y="295.6"/>
      <point x="1225.2" y="469.0" type="qcurve" smooth="yes"/>
      <point x="1225.2" y="630.8"/>
      <point x="994.1999999999999" y="785.1999999999999"/>
      <point x="816.6" y="785.1999999999999" type="qcurve" smooth="yes"/>
      <point x="635.0" y="785.1999999999999"/>
      <point x="365.0" y="618.3999999999999"/>
      <point x="365.0" y="465.0" type="qcurve"/>
      <point x="279.0" y="465.0" type="line"/>
      <point x="279.0" y="666.5999999999999"/>
      <point x="649.8" y="912.9999999999999"/>
      <point x="886.4000000000001" y="912.9999999999999" type="qcurve" smooth="yes"/>
      <point x="1141.6" y="912.9999999999999"/>
      <point x="1435.4" y="681.8000000000001"/>
      <point x="1435.2" y="465.4" type="qcurve" smooth="yes"/>
      <point x="1435.0" y="242.60000000000002"/>
      <point x="1086.0" y="-23.0"/>
      <point x="797.1999999999999" y="-23.0" type="qcurve" smooth="yes"/>
      <point x="519.0000000000001" y="-23.0"/>
      <point x="156.8" y="279.40000000000003"/>
    </contour>
  </outline>
</glyph>
<glyph name="seven" format="2">
  <advance width="1551"/>
  <unicode hex="0037"/>
  <outline>
    <contour>
      <point x="424.59999999999997" y="0.0" type="line"/>
      <point x="1150.6" y="1288.0" type="line"/>
      <point x="201.6" y="1288.0" type="line"/>
      <point x="201.6" y="1456.0" type="line"/>
      <point x="1366.6" y="1456.0" type="line"/>
      <point x="1366.6" y="1299.9999999999998" type="line"/>
      <point x="640.6" y="0.0" type="line"/>
    </contour>
  </outline>
</glyph>
<glyph name="eight" format="2">
  <advance width="1551"/>
  <unicode hex="0038"/>
  <outline>
    <contour>
      <point x="148.60000000000002" y="399.0" type="qcurve" smooth="yes"/>
      <point x="148.60000000000002" y="544.8000000000001"/>
      <point x="360.2" y="724.4"/>
      <point x="509.8" y="751.8" type="qcurve"/>
      <point x="509.8" y="755.8" type="line"/>
      <point x="373.4" y="789.6"/>
      <point x="205.8" y="963.2"/>
      <point x="205.8" y="1109.3999999999999" type="qcurve" smooth="yes"/>
      <point x="205.8" y="1278.1999999999998"/>
      <point x="509.59999999999997" y="1479.0"/>
      <point x="777.6" y="1479.0" type="qcurve" smooth="yes"/>
      <point x="1043.6000000000001" y="1479.0"/>
      <point x="1345.8000000000002" y="1270.1999999999998"/>
      <point x="1345.8000000000002" y="1109.6000000000001" type="qcurve" smooth="yes"/>
      <point x="1345.8000000000002" y="956.8000000000001"/>
      <point x="1195.1999999999998" y="790.2"/>
      <point x="1067.8" y="758.1999999999999" type="qcurve"/>
      <point x="1067.8" y="754.1999999999999" type="line"/>
      <point x="1215.0" y="724.4"/>
      <point x="1403.0" y="547.2"/>
      <point x="1403.0" y="399.0" type="qcurve" smooth="yes"/>
      <point x="1403.0" y="197.6"/>
      <point x="1069.4" y="-23.0"/>
      <point x="777.6" y="-23.0" type="qcurve" smooth="yes"/>
      <point x="483.59999999999997" y="-23.0"/>
      <point x="148.60000000000002" y="197.6"/>
    </contour>
    <contour>
      <point x="358.40000000000003" y="410.4" type="qcurve" smooth="yes"/>
      <point x="358.40000000000003" y="274.8"/>
      <point x="581.8000000000001" y="126.0"/>
      <point x="776.6" y="126.0" type="qcurve" smooth="yes"/>
      <point x="971.4" y="126.0"/>
      <point x="1193.2" y="271.4"/>
      <point x="1193.2" y="409.40000000000003" type="qcurve" smooth="yes"/>
      <point x="1193.2" y="539.8"/>
      <point x="973.2" y="681.1999999999999"/>
      <point x="776.8" y="681.1999999999999" type="qcurve" smooth="yes"/>
      <point x="580.4000000000001" y="681.1999999999999"/>
      <point x="358.40000000000003" y="540.2"/>
    </contour>
    <contour>
      <point x="410.40000000000003" y="1085.8" type="qcurve" smooth="yes"/>
      <point x="410.40000000000003" y="951.4"/>
      <point x="608.4" y="807.6"/>
      <point x="776.8000000000001" y="807.6" type="qcurve" smooth="yes"/>
      <point x="945.2" y="807.6"/>
      <point x="1140.8" y="951.4"/>
      <point x="1140.8" y="1085.8" type="qcurve" smooth="yes"/>
      <point x="1140.8" y="1193.8000000000002"/>
      <point x="939.2" y="1328.2"/>
      <point x="776.6" y="1328.2" type="qcurve" smooth="yes"/>
      <point x="614.0" y="1328.2"/>
      <point x="410.40000000000003" y="1200.2"/>
    </contour>
  </outline>
</glyph>
<glyph name="nine" format="2">
  <advance width="1551"/>
  <unicode hex="0039"/>
  <outline>
    <contour>
      <point x="115.4" y="987.6" type="qcurve" smooth="yes"/>
      <point x="115.60000000000001" y="1210.3999999999999"/>
      <point x="464.6" y="1476.0"/>
      <point x="753.4" y="1476.0" type="qcurve" smooth="yes"/>
      <point x="1031.6000000000001" y="1476.0"/>
      <point x="1393.8" y="1173.6"/>
      <point x="1393.8" y="839.0" type="qcurve" smooth="yes"/>
      <point x="1393.8" y="809.0" type="line" smooth="yes"/>
      <point x="1393.8" y="420.0"/>
      <point x="836.8" y="-11.799999999999999"/>
      <point x="372.2" y="-20.599999999999998" type="qcurve" smooth="yes"/>
      <point x="327.2" y="-20.599999999999998" type="line"/>
      <point x="327.2" y="142.60000000000002" type="line"/>
      <point x="368.19999999999993" y="142.60000000000002" type="line" smooth="yes"/>
      <point x="736.2" y="142.60000000000002"/>
      <point x="1186.4" y="475.40000000000003"/>
      <point x="1186.4" y="836.1999999999999" type="qcurve" smooth="yes"/>
      <point x="1186.4" y="856.2" type="line" smooth="yes"/>
      <point x="1186.4" y="1108.6"/>
      <point x="936.4" y="1321.8000000000002"/>
      <point x="746.4" y="1321.8000000000002" type="qcurve" smooth="yes"/>
      <point x="554.0" y="1321.8000000000002"/>
      <point x="325.40000000000003" y="1157.4"/>
      <point x="325.40000000000003" y="984.0" type="qcurve" smooth="yes"/>
      <point x="325.40000000000003" y="822.2"/>
      <point x="556.4000000000001" y="667.8"/>
      <point x="734.0" y="667.8" type="qcurve" smooth="yes"/>
      <point x="915.6" y="667.8"/>
      <point x="1185.6" y="834.6"/>
      <point x="1185.6" y="988.0" type="qcurve"/>
      <point x="1271.6" y="988.0" type="line"/>
      <point x="1271.6" y="786.4"/>
      <point x="900.8" y="540.0"/>
      <point x="664.2" y="540.0" type="qcurve" smooth="yes"/>
      <point x="409.0" y="540.0"/>
      <point x="115.2" y="771.2"/>
    </contour>
  </outline>
</glyph>
<glyph name="J" format="2">
  <advance width="1326"/>
  <unicode hex="004A"/>
  <outline>
    <contour>
      <point x="25.0" y="423.0" type="qcurve" smooth="yes"/>
      <point x="25.0" y="509.0" type="line"/>
      <point x="216.6" y="509.0" type="line"/>
      <point x="216.6" y="447.8" type="line" smooth="yes"/>
      <point x="216.6" y="275.2"/>
      <point x="383.6" y="131.2"/>
      <point x="574.6" y="131.2" type="qcurve" smooth="yes"/>
      <point x="779.0" y="131.2"/>
      <point x="952.0" y="303.99999999999994"/>
      <point x="952.0" y="485.99999999999994" type="qcurve" smooth="yes"/>
      <point x="952.0" y="1456.0" type="line"/>
      <point x="1160.2" y="1456.0" type="line"/>
      <point x="1160.2" y="469.6" type="line" smooth="yes"/>
      <point x="1160.2" y="238.00000000000003"/>
      <point x="898.4" y="-24.0"/>
      <point x="588.1999999999999" y="-24.0" type="qcurve" smooth="yes"/>
      <point x="292.6" y="-24.0"/>
      <point x="25.0" y="195.0"/>
    </contour>
  </outline>
</glyph>
<glyph name="K" format="2">
  <advance width="1536"/>
  <unicode hex="004B"/>
  <outline>
    <contour>
      <point x="212.0" y="0.0" type="line"/>
      <point x="212.0" y="1456.0" type="line"/>
      <point x="420.0" y="1456.0" type="line"/>
      <point x="420.0" y="741.0" type="line"/>
      <point x="1311.8" y="1456.0" type="line"/>
      <point x="1592.0" y="1456.0" type="line"/>
      <point x="420.0" y="526.0" type="line"/>
      <point x="420.0" y="0.0" type="line"/>
    </contour>
    <contour>
      <point x="1339.0" y="0.0" type="line"/>
      <point x="577.0000000000001" y="753.8000000000001" type="line"/>
      <point x="730.4" y="873.0" type="line"/>
      <point x="1624.0" y="0.0" type="line"/>
    </contour>
  </outline>
</glyph>
<glyph name="R" format="2">
  <advance width="1588"/>
  <unicode hex="0052"/>
  <outline>
    <contour>
      <point x="212.0" y="0.0" type="line"/>
      <point x="212.0" y="1456.0" type="line"/>
      <point x="1048.8000000000002" y="1456.0" type="line" smooth="yes"/>
      <point x="1261.0" y="1456.0"/>
      <point x="1499.0" y="1222.8000000000002"/>
      <point x="1499.0" y="1025.6" type="qcurve" smooth="yes"/>
      <point x="1499.0" y="830.4000000000001"/>
      <point x="1245.0" y="584.2"/>
      <point x="1047.0" y="584.2" type="qcurve" smooth="yes"/>
      <point x="420.0" y="584.2" type="line"/>
      <point x="420.0" y="0.0" type="line"/>
    </contour>
    <contour>
      <point x="420.0" y="732.0" type="line"/>
      <point x="1014.6" y="732.0" type="line" smooth="yes"/>
      <point x="1152.6" y="732.0"/>
      <point x="1287.6" y="892.6"/>
      <point x="1287.6" y="1016.4000000000001" type="qcurve" smooth="yes"/>
      <point x="1287.6" y="1142.9999999999998"/>
      <point x="1151.6" y="1298.4"/>
      <point x="1014.6" y="1298.4" type="qcurve" smooth="yes"/>
      <point x="420.0" y="1298.4" type="line"/>
    </contour>
    <contour>
      <point x="1381.0" y="0.0" type="line"/>
      <point x="953.0" y="667.0" type="line"/>
      <point x="1171.0" y="667.0" type="line"/>
      <point x="1616.0" y="0.0" type="line"/>
    </contour>
  </outline>
</glyph>
<glyph name="g" format="2">
  <advance width="1403"/>
  <unicode hex="0067"/>
  <outline>
    <contour>
      <point x="164.8" y="-311.40000000000003" type="qcurve"/>
      <point x="219.6" y="-161.79999999999998" type="line"/>
      <point x="278.59999999999997" y="-203.8"/>
      <point x="517.8" y="-285.6"/>
      <point x="675.8000000000001" y="-285.6" type="qcurve" smooth="yes"/>
      <point x="829.6" y="-285.6"/>
      <point x="1034.8000000000002" y="-116.0"/>
      <point x="1034.8000000000002" y="60.0" type="qcurve" smooth="yes"/>
      <point x="1034.8000000000002" y="120.0" type="line"/>
      <point x="977.8" y="59.000000000000014"/>
      <point x="773.4" y="-30.0"/>
      <point x="609.8" y="-30.0" type="qcurve" smooth="yes"/>
      <point x="369.2" y="-30.0"/>
      <point x="76.80000000000001" y="222.0"/>
      <point x="76.80000000000001" y="456.0" type="qcurve" smooth="yes"/>
      <point x="76.80000000000001" y="468.0" type="line" smooth="yes"/>
      <point x="76.80000000000001" y="690.0"/>
      <point x="360.2" y="944.0"/>
      <point x="609.4000000000001" y="944.0" type="qcurve" smooth="yes"/>
      <point x="775.0" y="944.0"/>
      <point x="993.2" y="838.0"/>
      <point x="1035.6" y="780.0" type="qcurve"/>
      <point x="1037.2" y="780.0" type="line"/>
      <point x="1037.0" y="914.0" type="line"/>
      <point x="1234.8" y="914.0" type="line"/>
      <point x="1234.8" y="136.0" type="line" smooth="yes"/>
      <point x="1234.8" y="-164.0"/>
      <point x="932.4" y="-431.0"/>
      <point x="691.4" y="-431.0" type="qcurve" smooth="yes"/>
      <point x="509.79999999999995" y="-431.0"/>
      <point x="242.79999999999998" y="-359.6"/>
    </contour>
    <contour>
      <point x="277.2" y="460.8" type="line" smooth="yes"/>
      <point x="277.2" y="294.4"/>
      <point x="459.6" y="121.4"/>
      <point x="654.6" y="121.4" type="qcurve" smooth="yes"/>
      <point x="809.4" y="121.4"/>
      <point x="1001.5999999999999" y="221.8"/>
      <point x="1033.0" y="276.0" type="qcurve"/>
      <point x="1033.0" y="642.2" type="line"/>
      <point x="991.8000000000001" y="700.6"/>
      <point x="792.4" y="791.0"/>
      <point x="657.6" y="791.0" type="qcurve" smooth="yes"/>
      <point x="455.6" y="791.0"/>
      <point x="277.2" y="608.0000000000001"/>
      <point x="277.2" y="465.40000000000003" type="qcurve" smooth="yes"/>
    </contour>
  </outline>
</glyph>
<glyph name="o" format="2">
  <advance width="1366"/>
  <unicode hex="006F"/>
  <anchor x="681.8" y="914.0" name="top"/>
  <outline>
    <contour>
      <point x="76.80000000000001" y="456.59999999999997" type="qcurve" smooth="yes"/>
      <point x="76.80000000000001" y="467.80000000000007" type="line" smooth="yes"/>
      <point x="76.80000000000001" y="682.6"/>
      <point x="407.2" y="947.5999999999999"/>
      <point x="682.4000000000001" y="947.5999999999999" type="qcurve" smooth="yes"/>
      <point x="958.8" y="947.5999999999999"/>
      <point x="1289.0" y="682.6"/>
      <point x="1289.0" y="467.80000000000007" type="qcurve" smooth="yes"/>
      <point x="1289.0" y="456.59999999999997" type="line" smooth="yes"/>
      <point x="1289.0" y="233.00000000000003"/>
      <point x="958.5999999999999" y="-31.4"/>
      <point x="682.4000000000001" y="-31.4" type="qcurve" smooth="yes"/>
      <point x="406.2" y="-31.4"/>
      <point x="76.80000000000001" y="233.00000000000003"/>
    </contour>
    <contour>
      <point x="284.6" y="466.0" type="qcurve" smooth="yes"/>
      <point x="284.6" y="451.0" type="line" smooth="yes"/>
      <point x="284.6" y="304.40000000000003"/>
      <point x="486.0" y="122.20000000000002"/>
      <point x="681.8" y="122.20000000000002" type="qcurve" smooth="yes"/>
      <point x="880.1999999999999" y="122.20000000000002"/>
      <point x="1079.6" y="304.6"/>
      <point x="1079.6" y="452.0" type="qcurve" smooth="yes"/>
      <point x="1079.6" y="466.0" type="line" smooth="yes"/>
      <point x="1079.6" y="611.0"/>
      <point x="880.1999999999999" y="790.8"/>
      <point x="681.8" y="790.8" type="qcurve" smooth="yes"/>
      <point x="486.0" y="790.8"/>
      <point x="284.6" y="610.8"/>
    </contour>
  </outline>
</glyph>
<glyph name="braceright" format="2">
  <advance width="805"/>
  <unicode hex="007D"/>
  <outline>
    <contour>
      <point x="31.0" y="-312.4" type="qcurve"/>
      <point x="31.0" y="-170.0" type="line"/>
      <point x="268.4" y="-170.0"/>
      <point x="395.79999999999995" y="-11.4"/>
      <point x="363.2" y="131.79999999999998" type="qcurve" smooth="yes"/>
      <point x="316.2" y="333.6" type="line" smooth="yes"/>
      <point x="296.2" y="417.59999999999997"/>
      <point x="369.6" y="545.0"/>
      <point x="468.6" y="573.6" type="qcurve"/>
      <point x="369.6" y="602.1999999999999"/>
      <point x="295.2" y="729.5999999999999"/>
      <point x="316.2" y="813.6" type="qcurve" smooth="yes"/>
      <point x="363.2" y="1015.4000000000001" type="line" smooth="yes"/>
      <point x="395.79999999999995" y="1158.6000000000001"/>
      <point x="268.4" y="1317.2"/>
      <point x="31.0" y="1317.2" type="qcurve"/>
      <point x="31.0" y="1459.6000000000001" type="line"/>
      <point x="377.6" y="1475.6"/>
      <point x="599.4" y="1225.8"/>
      <point x="551.8" y="1033.4" type="qcurve" smooth="yes"/>
      <point x="505.0" y="827.6" type="line" smooth="yes"/>
      <point x="480.00000000000006" y="717.3999999999999"/>
      <point x="598.0" y="648.4"/>
      <point x="701.6" y="648.4" type="qcurve"/>
      <point x="701.6" y="498.6" type="line"/>
      <point x="598.0" y="498.6"/>
      <point x="480.0" y="429.6"/>
      <point x="505.0" y="319.6" type="qcurve" smooth="yes"/>
      <point x="551.8" y="113.79999999999998" type="line" smooth="yes"/>
      <point x="599.0" y="-76.80000000000001"/>
      <point x="377.6" y="-324.4"/>
    </contour>
  </outline>
</glyph>
<glyph name="asciitilde" format="2">
  <advance width="1250"/>
  <unicode hex="007E"/>
  <outline>
    <contour>
      <point x="99.6" y="508.79999999999995" type="qcurve"/>
      <point x="99.6" y="729.6" type="line"/>
      <point x="141.79999999999993" y="787.8"/>
      <point x="255.40000000000003" y="838.4"/>
      <point x="323.0" y="838.4" type="qcurve" smooth="yes"/>
      <point x="379.0" y="838.4"/>
      <point x="540.0" y="793.0000000000001"/>
      <point x="625.4000000000001" y="762.4000000000001" type="qcurve" smooth="yes"/>
      <point x="716.4000000000001" y="729.6"/>
      <point x="877.4" y="678.1999999999999"/>
      <point x="927.0" y="678.1999999999999" type="qcurve" smooth="yes"/>
      <point x="1012.6000000000001" y="678.1999999999999"/>
      <point x="1127.3999999999999" y="765.4000000000001"/>
      <point x="1156.8" y="835.8" type="qcurve"/>
      <point x="1156.8" y="589.5999999999999" type="line"/>
      <point x="1117.1999999999998" y="537.8"/>
      <point x="1005.9999999999999" y="489.4000000000001"/>
      <point x="934.0" y="489.4000000000001" type="qcurve" smooth="yes"/>
      <point x="880.4000000000001" y="489.4000000000001"/>
      <point x="724.4" y="531.8"/>
      <point x="638.1999999999999" y="561.8" type="qcurve" smooth="yes"/>
      <point x="544.6" y="594.0"/>
      <point x="375.19999999999993" y="647.8000000000001"/>
      <point x="325.0" y="647.8000000000001" type="qcurve" smooth="yes"/>
      <point x="243.0" y="647.8000000000001"/>
      <point x="129.0" y="566.0"/>
    </contour>
  </outline>
</glyph>
<glyph name="fraction" format="2">
  <advance width="342"/>
  <unicode hex="2044"/>
  <guideline x="0" y="901.0" angle="0" identifier="tcCoNUQTdD"/>
  <guideline x="0" y="555.0" angle="0" identifier="0lx51aIE0d"/>
  <outline>
    <contour>
      <point x="799.8" y="1392.8" type="line"/>
      <point x="-317.80000000000007" y="-43.199999999999996" type="line"/>
      <point x="-458.8" y="51.60000000000001" type="line"/>
      <point x="655.8000000000001" y="1484.8" type="line"/>
    </contour>
  </outline>
</glyph>
<glyph name="acutecombstack.case" format="2">
  <advance width="1024"/>
  <outline>
    <contour>
      <point x="302.0" y="1715.0" type="line"/>
      <point x="605.0" y="1941.0" type="line"/>
      <point x="721.0" y="1777.0" type="line"/>
      <point x="384.0" y="1605.0" type="line"/>
    </contour>
  </outline>
</glyph>
<glyph name="diagonalbarl" format="2">
  <advance width="629"/>
  <outline>
    <contour>
      <point x="84.0" y="469.00000000000006" type="line"/>
      <point x="0.0" y="614.0" type="line"/>
      <point x="275.0" y="807.0" type="line"/>
      <point x="540.0" y="1026.0" type="line"/>
      <point x="620.0" y="884.0" type="line"/>
      <point x="350.0" y="690.0" type="line"/>
    </contour>
  </outline>
</glyph>
<glyph name="tildecomb.case" format="2">
  <advance width="1024"/>
  <outline>
    <contour>
      <point x="105.0" y="1762.0" type="line"/>
      <point x="142.0" y="1831.0"/>
      <point x="293.0" y="1944.0"/>
      <point x="370.0" y="1944.0" type="qcurve" smooth="yes"/>
      <point x="416.0" y="1944.0"/>
      <point x="498.0" y="1914.0"/>
      <point x="540.0" y="1886.0" type="qcurve" smooth="yes"/>
      <point x="570.0" y="1868.0"/>
      <point x="667.0" y="1812.0"/>
      <point x="714.0" y="1812.0" type="qcurve" smooth="yes"/>
      <point x="760.0" y="1812.0"/>
      <point x="845.0" y="1869.0"/>
      <point x="871.0" y="1908.0" type="qcurve"/>
      <point x="939.0" y="1823.0" type="line"/>
      <point x="897.0" y="1741.0"/>
      <point x="758.0" y="1652.0"/>
      <point x="695.0" y="1652.0" type="qcurve" smooth="yes"/>
      <point x="642.0" y="1652.0"/>
      <point x="535.0" y="1701.0"/>
      <point x="503.0" y="1723.0" type="qcurve" smooth="yes"/>
      <point x="467.0" y="1748.0"/>
      <point x="384.0" y="1786.0"/>
      <point x="351.0" y="1786.0" type="qcurve" smooth="yes"/>
      <point x="298.0" y="1786.0"/>
      <point x="200.00000000000003" y="1707.0"/>
      <point x="180.0" y="1677.0" type="qcurve"/>
    </contour>
  </outline>
</glyph>
